PathFileType	4	(X/Y/Z)	D:\TRACE\spot_10-12-23\spot_arm_body_motion_1_2-platform.trc
DataRate	CameraRate	NumFrames	NumMarkers	Units	OrigDataRate	OrigDataStartFrame	OrigNumFrames
100.00	100.00	      42	5	mm	100.00	5251	      7000
Frame#	Time	Left_Front			Right_Front			Left_Aft			Right_Aft			Post			
		X1	Y1	Z1	X2	Y2	Z2	X3	Y3	Z3	X4	Y4	Z4	X5	Y5	Z5	

5251	52.500	-733.95703	28.46748	-646.91144	833.66687	26.72787	-622.05664	-662.26770	-1.35383	491.46658	747.35950	-3.86065	591.86737	67.59592	769.24792	-937.40759	
5252	52.510	-733.70319	28.87171	-646.71576	833.99829	27.10506	-621.87073	-662.04712	-1.64393	491.52982	747.53662	-4.17287	591.89435	67.88413	769.90417	-937.03601	
5253	52.520	-733.29053	29.11742	-646.67664	834.26031	27.58297	-621.71692	-661.89209	-1.87178	491.55109	747.74316	-4.47333	592.04382	68.08276	770.41699	-936.73145	
5254	52.530	-733.08563	29.56775	-646.48645	834.36682	27.96364	-621.65356	-661.76062	-2.03565	491.59146	747.99939	-4.77375	592.12946	68.18571	771.06061	-936.32996	
5255	52.540	-733.08234	30.52207	-646.49042	834.51544	28.38584	-621.55286	-661.66431	-2.27766	491.63358	748.19946	-5.18599	592.20245	68.39460	771.68188	-935.82916	
5256	52.550	-733.01056	31.10298	-646.27710	834.54010	28.80950	-621.50403	-661.60858	-2.57585	491.72131	748.40674	-5.48278	592.32233	24.41838	772.79779	-961.48730	
5257	52.560	-732.91589	31.17438	-646.08997	834.64478	28.86258	-621.38293	-661.46741	-2.77944	491.81345	748.50287	-5.71638	592.35138	68.50240	772.54657	-934.65918	
5258	52.570	-732.86395	31.29646	-645.98285	834.73376	29.05775	-621.28400	-661.36987	-3.14860	491.93304	748.51392	-5.94409	592.41797	68.73202	773.27588	-934.05463	
5259	52.580	-732.76031	31.63273	-645.93341	834.77881	29.61242	-621.22144	-661.33276	-3.51910	491.97235	748.47797	-6.29269	592.52173	68.58988	773.74164	-933.69116	
5260	52.590	-732.54272	31.90122	-645.82593	834.81415	30.13158	-621.07928	-661.26758	-3.73881	492.06589	748.46960	-6.78187	592.59845	68.82680	774.22327	-933.18787	
5261	52.600	-732.67786	32.31975	-645.66510	834.86200	30.52327	-620.97742	-661.23956	-3.92454	492.12335	748.69128	-7.10972	592.67542	68.74123	774.77173	-932.56012	
5262	52.610	-732.33679	32.76911	-645.58734	834.85046	30.77649	-620.88861	-661.27472	-4.14884	492.22623	748.71008	-7.27889	592.74921	68.75716	775.52191	-931.78339	
5263	52.620	-732.29681	33.08411	-645.53247	834.87280	31.08985	-620.80426	-661.22461	-4.33975	492.31970	748.63605	-7.53808	592.83740	68.86806	775.79132	-931.15839	
5264	52.630	-732.41052	33.26167	-645.40625	834.77142	31.45870	-620.71942	-661.21503	-4.56865	492.44800	748.54077	-8.02442	592.54816	69.04736	776.35919	-930.74579	
5265	52.640	-732.39532	33.44994	-645.26263	834.77533	31.74945	-620.63971	-661.16260	-4.91886	492.53934	748.80780	-8.21274	593.04956	68.78693	776.67712	-930.27930	
5266	52.650	-732.60956	34.01799	-645.13251	834.78766	31.97692	-620.46350	-661.14008	-5.15305	492.64130	748.74518	-8.37641	593.13354	68.70921	777.42969	-929.58197	
5267	52.660	-732.63599	34.53835	-645.04401	834.82458	32.39774	-620.35706	-661.11139	-5.31483	492.74490	748.78790	-8.57102	593.20728	68.76074	777.89722	-929.24347	
5268	52.670	-732.68457	34.95877	-644.96320	834.82312	32.82969	-620.30170	-661.12769	-5.52842	492.84567	748.71497	-8.77821	593.25049	68.82942	778.19476	-928.98730	
5269	52.680	-732.73950	35.21510	-644.93262	834.85529	33.10565	-620.28198	-661.19287	-5.91525	492.89127	748.72699	-9.05633	593.25421	68.85378	778.56647	-928.62286	
5270	52.690	-732.82898	35.45712	-644.89532	834.72107	33.29073	-620.22357	-661.37042	-6.17125	492.95865	748.53320	-9.45107	593.31476	34.82298	786.83588	-941.63660	
5271	52.700	-733.09467	35.86510	-644.82190	834.48999	33.67646	-620.04059	-661.50763	-6.34861	493.03564	748.29016	-9.82792	593.46808	68.25169	779.64899	-927.66101	
5272	52.710	-733.43829	36.20388	-644.72473	834.19946	34.15881	-619.94360	-661.82288	-6.46383	493.16696	747.90436	-10.10596	593.57892	68.20551	780.06763	-927.33795	
5273	52.720	-733.65649	36.70897	-644.74500	833.96869	34.44554	-619.88544	-662.09808	-6.57290	493.21707	747.61243	-10.29245	593.56219	67.95929	780.46344	-927.11292	
5274	52.730	-733.96051	36.94714	-644.65924	833.71674	34.65976	-619.82111	-662.41986	-6.72611	493.17239	747.41418	-10.46357	593.57135	67.53247	780.77948	-926.84662	
5275	52.740	-734.19324	37.05771	-644.53894	833.43402	34.84385	-619.78333	-662.72797	-7.03538	493.26047	747.19598	-10.75558	593.61285	67.20732	781.21802	-926.31079	
5276	52.750	-734.66071	37.20506	-644.06702	833.11310	35.08598	-619.72101	-662.94720	-7.17398	493.34424	746.98175	-10.93398	593.74225	66.99155	781.51587	-925.71204	
5277	52.760	-734.86670	37.43427	-644.06177	832.79529	35.37731	-619.66364	-663.14624	-7.30999	493.41016	746.78540	-11.02149	593.81470	66.94415	781.90521	-925.31470	
5278	52.770	-735.02924	37.78157	-644.10028	832.52960	35.66574	-619.57361	-663.42676	-7.36295	493.47992	746.47040	-11.13030	593.80975	66.80241	782.20880	-925.09198	
5279	52.780	-735.32959	37.89996	-644.15411	832.28210	35.84537	-619.54633	-663.88263	-7.47801	493.41306	746.07074	-11.43404	593.76013	66.38919	782.44617	-924.63831	
5280	52.790	-735.68250	38.12405	-644.13129	831.91901	35.99592	-619.46161	-664.17004	-7.75334	493.44656	745.57910	-11.70554	593.83667	65.78706	782.82703	-924.14911	
5281	52.800	-736.07092	38.22612	-644.11957	831.57080	36.19524	-619.34741	-664.55371	-8.02010	493.53195	745.15417	-11.90614	593.96930	65.55349	783.10822	-923.93152	
5282	52.810	-736.37018	38.44883	-644.10205	831.29431	36.46936	-619.28552	-664.83160	-8.18825	493.58356	744.64233	-12.15263	593.58154	65.24120	783.47699	-923.75525	
5283	52.820	-736.66364	38.80962	-644.11304	830.89636	36.82950	-619.29315	-665.18011	-8.19100	493.59772	744.62207	-12.03702	594.04999	64.75591	783.85413	-923.58710	
5284	52.830	-737.10999	39.14266	-644.07825	830.41968	37.04297	-619.27838	-665.58698	-8.17070	493.63907	744.27539	-12.22338	593.99115	64.22824	784.14026	-923.38379	
5285	52.840	-737.57996	39.22599	-643.98346	829.88177	37.15581	-619.26422	-666.11029	-8.28656	493.68399	743.83905	-12.44033	593.99335	63.78672	784.29523	-923.14746	
5286	52.850	-738.02777	39.22846	-643.98608	829.45306	37.20496	-619.19061	-666.74774	-8.53814	493.66376	743.23560	-12.67012	594.02490	63.42042	784.44696	-923.01947	
5287	52.860	-738.42450	39.28667	-643.93201	829.04474	37.37919	-619.07983	-667.19806	-8.73876	493.69687	742.76099	-12.84776	594.12793	62.96485	784.76257	-922.81824	
5288	52.870	-738.74365	39.56199	-643.86859	828.61841	37.61900	-619.08203	-667.53406	-8.87441	493.69583	742.26532	-12.99747	594.21045	62.59692	785.07349	-922.71863	
5289	52.880	-739.32031	39.92930	-643.66144	828.12146	37.83548	-619.10223	-667.90344	-8.96278	493.71680	741.74701	-13.12025	594.24554	61.91716	785.38013	-922.26715	
5290	52.890	-739.70233	40.21029	-643.67590	827.63452	38.05774	-619.08514	-668.40466	-9.02822	493.74091	741.43329	-13.17823	594.23187	61.35585	785.74457	-922.02417	
5291	52.900	-740.00122	40.00990	-643.93762	827.09857	38.29448	-618.99231	-668.89771	-9.19078	493.80423	740.91492	-13.35112	594.26709	60.96410	786.02155	-921.88171	
5292	52.910	-740.93365	40.34945	-643.72479	826.60504	38.45371	-618.89453	-669.54681	-9.37352	493.82278	740.35913	-13.56742	594.27301	60.53043	786.15198	-921.56995	
